# xmcd CD database file
#
# Track frame offsets:
#	182
#	21135
#	27715
#	46260
#	66300
#	98562
#	117125
#	141910
#	166062
#	203230
#
# Disc length: 3044 seconds
#
# Revision: 1
# Processed by: cddbd v1.5.1PL0 Copyright (c) Steve Scherf et al.
# Submitted via: CDex 1.51
#
DISCID=850be20a
DTITLE=Eddy Louiss - WéBé
DYEAR=1992
DGENRE=Jazz
TTITLE0=WéBé
TTITLE1=Sax Fun
TTITLE2=Funk Set
TTITLE3=P'tit Bill au pays de Lauzanette
TTITLE4=Miséréré
TTITLE5=Hamac Blues
TTITLE6=Le petit cheval de Belfast
TTITLE7=Les éléphants
TTITLE8=Souvenirs d'une autre Vie
TTITLE9=Djawa Dénam
EXTD=YEAR: 1992
EXTT0=
EXTT1=
EXTT2=
EXTT3=
EXTT4=
EXTT5=
EXTT6=
EXTT7=
EXTT8=
EXTT9=
PLAYORDER=
